[
  {
    "duration_time": "0.256000",
    "pts_time": "0.000000"
  },
  {
    "duration_time": "0.256000",
    "pts_time": "0.256000"
  },
  {
    "duration_time": "0.256000",
    "pts_time": "0.512000"
  },
  {
    "duration_time": "0.256000",
    "pts_time": "0.768000"
  },
  {
    "duration_time": "0.256000",
    "pts_time": "1.024000"
  },
  {
    "duration_time": "0.256000",
    "pts_time": "1.280000"
  },
  {
    "duration_time": "0.256000",
    "pts_time": "1.536000"
  },
  {
    "duration_time": "0.256000",
    "pts_time": "1.792000"
  },
  {
    "duration_time": "0.256000",
    "pts_time": "2.048000"
  },
  {
    "duration_time": "0.256000",
    "pts_time": "2.304000"
  },
  {
    "duration_time": "0.256000",
    "pts_time": "2.560000"
  },
  {
    "duration_time": "0.256000",
    "pts_time": "2.816000"
  },
  {
    "duration_time": "0.256000",
    "pts_time": "3.072000"
  },
  {
    "duration_time": "0.256000",
    "pts_time": "3.328000"
  },
  {
    "duration_time": "0.256000",
    "pts_time": "3.584000"
  },
  {
    "duration_time": "0.160000",
    "pts_time": "3.840000"
  }
]
